<?xml version="1.0" encoding="utf-8"?>
<!-- Generator: Adobe Illustrator 24.3.0, SVG Export Plug-In . SVG Version: 6.00 Build 0)  -->
<svg version="1.1" id="Lager_1" xmlns="http://www.w3.org/2000/svg" xmlns:xlink="http://www.w3.org/1999/xlink" x="0px" y="0px"
	 width="130px" height="235px" viewBox="0 0 130 235" style="enable-background:new 0 0 130 235;" xml:space="preserve">
<style type="text/css">
	.st0{fill:#0F4E3C;}
</style>
<path class="st0" d="M62.85,166.46c12.74,32.17,46.64,69.04,46.64,69.04c-1.66,1.08-1.15,1.01-1.55,0.99
	c-1.25-0.07-21.68-17.91-22.91-17.92c-74.96-0.65-102.37-91.2-69.28-156.36C46.96,0.75,105.16-1.82,97.02,4.81
	c-34.29,27.92-20.31,58.63,4.76,92c46.06,61.3,30.33,96.48-0.9,118.48l0,0c-32.33-43.72-38.67-62.99-45.57-94.01
	C51.65,124.14,55.92,148.95,62.85,166.46z"/>
</svg>
